<!-- Generator: Adobe Illustrator 22.0.1, SVG Export Plug-In  -->
<svg version="1.1"
	 xmlns="http://www.w3.org/2000/svg" xmlns:xlink="http://www.w3.org/1999/xlink" xmlns:a="http://ns.adobe.com/AdobeSVGViewerExtensions/3.0/"
	 x="0px" y="0px" width="194.99px" height="909.97px" viewBox="0 0 194.99 909.97" enable-background="new 0 0 194.99 909.97"
	 xml:space="preserve">
<defs>
</defs>
<g>
	<g>
		<path fill="#F4DDD2" d="M105.2,715.19c4.45-1.19,8.8-1.95,12.64-4.57c6.37-4.33,13.41-5.15,20.8-3.25
			c14.46,3.71,26.76,13.55,39.96,20.11c5.46,2.71,10.52,5.94,10.76,12.61c0.2,5.57-2.04,11.2-3.56,16.47
			c-2.98,10.3-5.52,21.86-13.81,29.38c-7.51,6.81-19.4,9.99-29.25,11.1c-11.44,1.29-23.34-0.61-34.15-4.43
			c-9.99-3.54-21.36-9.61-25.92-19.76c-1.52-3.38-2.39-7.18-3.08-10.79c-1.53-8.04-1.69-16.6,0.78-24.46
			C84.07,725.83,93.74,718.67,105.2,715.19c2.82-0.85,1.62-5.28-1.22-4.42c-10.87,3.3-20.73,9.61-25.82,20.07
			c-3.93,8.07-4.83,17.26-3.91,26.1c0.52,5.01,1.5,10,3.12,14.77c3.4,9.96,11.71,16.82,20.87,21.44
			c21.48,10.85,51.01,12.96,72.09-0.26c9.55-5.99,14.21-16.07,17.46-26.49c2.08-6.66,4.37-13.61,5.61-20.49
			c0.88-4.92,0.86-10.05-1.98-14.37c-4.33-6.59-13.25-9.31-19.8-13.05c-8.12-4.63-16.09-9.67-24.78-13.2
			c-7.45-3.03-15.79-4.86-23.68-2.41c-3.75,1.16-6.52,3.64-9.97,5.28c-2.83,1.35-6.18,1.78-9.2,2.59
			C101.14,711.53,102.34,715.96,105.2,715.19z"/>
	</g>
</g>
<g>
	<g>
		<path fill="#E7F3FB" d="M3.53,38.24c-3.68,9.46-6.69,22.81,2.84,29.97c5.03,3.78,11.5,4.19,17.52,4.85
			c5.87,0.64,12.04,1.14,17.85-0.25c12.61-3.02,14.89-15.37,13.56-26.73c-0.62-5.32-2.12-10.8-5.78-14.87
			c-4.18-4.65-9.78-5.55-15.7-6.02C20.97,24.18,8.42,23.94,3.53,38.24c-0.76,2.22,2.75,3.17,3.5,0.97
			c4.58-13.41,18.57-11.44,30-10.16c7.43,0.83,12.02,5.7,13.84,12.74c1.65,6.41,2.31,15.22-1.03,21.19
			c-5.83,10.43-23.68,7.31-33.22,5.53c-15.7-2.93-14.2-17.44-9.59-29.3C7.88,37.03,4.37,36.08,3.53,38.24L3.53,38.24z"/>
	</g>
</g>
<g>
	<g>
		<path fill="#D28B70" d="M171.72,7.96c1.57-1.73,1.67-4.11,1.68-6.33c0-1.4-4.84-2.11-4.84-1.26c0,1.96,0.01,4.42-1.4,5.96
			C166.4,7.17,170.87,8.89,171.72,7.96L171.72,7.96z"/>
	</g>
</g>
<g>
	<g>
		<path fill="#D28B70" d="M166.34,315.68c2.69-2.76,4.57-5.96,6.28-9.38c0.37-0.73-4.24-2.49-4.82-1.33
			c-1.65,3.29-3.42,6.39-6.01,9.05C161.1,314.73,165.48,316.55,166.34,315.68L166.34,315.68z"/>
	</g>
</g>
<g>
	<g>
		<path fill="#D28B70" d="M170.18,909.74c2.69-2.77,4.57-5.96,6.28-9.38c0.37-0.73-4.24-2.49-4.82-1.33
			c-1.65,3.29-3.42,6.39-6.01,9.05C164.94,908.79,169.32,910.62,170.18,909.74L170.18,909.74z"/>
	</g>
</g>
<g>
	<g>
		<path fill="#EFE5A1" d="M191.45,149.41c6.36-14.45,4.82-30.52-10.01-38.76c-13-7.23-30.48-6.56-43.39,0.52
			c-13.96,7.65-21.92,25.48-17.55,41.07c4,14.27,19.48,18.05,32.6,16.87C165.96,167.95,185.63,162.53,191.45,149.41
			c1.29-2.92-3.01-5.46-4.32-2.52c-4.26,9.61-17.73,14.1-27.11,16.14c-10.32,2.24-25.42,2.86-32.29-6.94
			c-7.79-11.1-1.8-29.49,7.97-37.38c10.07-8.12,24.95-10.07,37.14-6.31c6.14,1.89,12.02,5.55,15.17,11.31
			c3.99,7.3,2.32,15.91-0.87,23.17C185.85,149.8,190.16,152.35,191.45,149.41L191.45,149.41z"/>
	</g>
</g>
<g>
	<g>
		<path fill="#F4DDD2" d="M154,160.4c-10.47-11.81-26.3-18.47-40.84-9.55c-11.73,7.2-18.69,21.81-16.47,35.44
			c2.44,15.02,17.84,28.12,32.79,29.72c12.49,1.33,21.88-7.62,26.44-18.46C160.57,186.52,162.53,170.15,154,160.4
			c-1.95-2.23-5.18,1.03-3.24,3.24c6.01,6.88,5.02,18.59,2.81,26.73c-2.51,9.24-8.57,19.52-18.91,21.04
			c-12.74,1.86-28.08-9.63-32.26-21.23c-4.1-11.39,0.31-24.54,9.15-32.44c12.92-11.55,28.8-5.84,39.21,5.91
			C152.72,165.86,155.96,162.6,154,160.4L154,160.4z"/>
	</g>
</g>
<g>
	<g>
		<path fill="#CEB5B4" d="M134.18,562.34c2.12-2.23,2.26-4.95,2.26-7.88c0-3.22-5-3.22-5,0c0,0.59,0,1.18-0.02,1.77
			c-0.01,0.29-0.06,1.06-0.06,1.06c-0.12,0.75-0.27,1.05-0.72,1.52C128.42,561.14,131.95,564.68,134.18,562.34L134.18,562.34z"/>
	</g>
</g>
<g>
	<g>
		<path fill="#CEB5B4" d="M103.21,437.68c1.5-0.06,2.6-0.72,3.47-1.9c0.22-0.3,0.41-0.61,0.61-0.93c0.14-0.21,0.27-0.43,0.42-0.63
			c-0.33,0.47,0.24-0.25,0.32-0.33c0.91-0.94,1.01-2.61,0-3.54c-0.98-0.9-2.57-1.01-3.54,0c-0.66,0.69-1.2,1.47-1.7,2.27
			c-0.08,0.13-0.17,0.27-0.26,0.4c-0.25,0.39,0.36-0.41,0.04-0.07c-0.29,0.3,0.39-0.27,0.14-0.12c-0.17,0.09-0.07,0.05,0.29-0.13
			c0.43-0.04,0.5-0.05,0.21-0.03c-1.31,0.05-2.56,1.11-2.5,2.5C100.77,436.49,101.81,437.73,103.21,437.68L103.21,437.68z"/>
	</g>
</g>
</svg>
