<!-- Generator: Adobe Illustrator 22.0.1, SVG Export Plug-In  -->
<svg version="1.1"
	 xmlns="http://www.w3.org/2000/svg" xmlns:xlink="http://www.w3.org/1999/xlink" xmlns:a="http://ns.adobe.com/AdobeSVGViewerExtensions/3.0/"
	 x="0px" y="0px" width="173.55px" height="811.53px" viewBox="0 0 173.55 811.53" enable-background="new 0 0 173.55 811.53"
	 xml:space="preserve">
<defs>
</defs>
<g>
	<g>
		<g>
			<path fill="#F4DDD2" d="M107.8,587.72c4.47,2.26,8.98,5.4,14,6.18c6.97,1.07,12.85,2.77,18.12,7.76
				c9.85,9.34,14.12,23.55,18.22,36.08c2.26,6.9,4.41,13.84,7.02,20.61c2.65,6.9,6.01,14.33,1.61,21.28
				c-3.61,5.71-10.25,9.21-15.83,12.66c-7.64,4.72-15.04,9.9-23.3,13.51c-7.51,3.28-15.49,4.84-23.62,3.34
				c-8.85-1.63-17.26-5.92-24.99-10.38c-13.24-7.64-23.87-20.08-31.49-33.17c-7.04-12.09-13.32-27.82-9.31-41.95
				c1.32-4.66,3.58-8.84,6.41-13.52c5.4-8.91,12.52-17.18,21.63-22.43C79.46,580.1,94.36,581.42,107.8,587.72
				c2.66,1.25,4.99-2.71,2.32-3.96c-12.9-6.05-27.18-8.3-40.65-2.73c-9.98,4.13-18.06,11.68-24.43,20.27
				c-3.85,5.19-7.12,10.83-9.64,16.78c-5.33,12.61-2.51,26.63,2.66,38.83c6.5,15.33,17.08,29.61,30.15,39.97
				c12.72,10.08,30.96,19.35,47.64,17.11c8.71-1.17,16.78-5.13,24.29-9.52c7.63-4.47,15.53-9.16,22.62-14.45
				c4.97-3.72,9.46-8.38,10.52-14.73c1.35-8.08-2.83-15.52-5.45-22.89c-5.73-16.15-9.4-34.25-19.74-48.29
				c-4.27-5.81-9.78-10.48-16.63-12.93c-3.68-1.31-7.62-1.16-11.26-2.38c-3.54-1.19-6.78-3.36-10.1-5.04
				C107.49,582.43,105.16,586.39,107.8,587.72z"/>
		</g>
	</g>
	<g>
		<g>
			<path fill="#F4DDD2" d="M35.83,11.57c3.05-0.81,6.38-1.31,9.14-2.91c5.48-3.2,9.91-4.92,16.36-3.46
				c11.16,2.51,20.75,10.13,30.76,15.29c4.3,2.21,9.22,4.25,9.79,9.68c0.44,4.23-1.32,8.63-2.49,12.63
				c-2.41,8.26-4.28,17.65-10.84,23.8c-5.78,5.42-15.03,7.89-22.69,8.86C56.73,76.6,47.15,75.05,38.52,72
				c-7.85-2.78-16.72-7.53-20.27-15.52c-1.14-2.57-1.8-5.41-2.34-8.15c-1.2-6.15-1.37-12.72,0.41-18.77
				C19.1,20.09,26.67,14.38,35.83,11.57c2.81-0.86,1.61-5.29-1.22-4.42c-17,5.21-25.64,19.31-23.94,36.78
				c0.4,4.11,1.18,8.23,2.53,12.14c2.82,8.18,9.68,13.76,17.25,17.49c17.23,8.48,41.42,10.23,57.98-1.03
				c7.51-5.11,11.07-13.55,13.56-21.98c2.36-8,7.64-19.4,2.11-27.15c-3.78-5.29-11.27-7.62-16.72-10.75
				C81.06,9.02,74.81,5.13,67.99,2.49c-5.86-2.27-12.41-3.48-18.53-1.48c-2.77,0.91-4.82,2.71-7.35,4.01
				c-2.26,1.16-5.06,1.48-7.51,2.13C31.76,7.9,32.97,12.33,35.83,11.57z"/>
		</g>
	</g>
	<g>
		<path fill="#E7F3FB" d="M58.13,311.37c-10.65,6.81-25.49,4.92-35.06,3.8c-5.55-0.89-12.63-8.92-17.08-14.1
			c-4.13-4.73-2.42-17.87-2.27-23.95c1.01-26.68,28.15-36.16,50.86-28.06c11.51,4.28,27.26,10.05,29.6,23.44
			c1.04,8.71-0.22,16.64-6.67,21.3c-3.74,3.06-5.58,4.39-8.66,8.37C66.88,304.3,61.49,309.52,58.13,311.37"/>
	</g>
	<path fill="none" stroke="#EFE5A1" stroke-width="4.2095" stroke-miterlimit="10" d="M108.85,129.25
		c-1.02-4.59-3.57-9.36-6.64-12.87c-4.51-5.14-12.15-7.33-18.65-8.88c-9.12-2.16-20.9,0.53-23.38,11.05
		c-0.54,2.29,0.2,3.53,0.7,5.91c0.54,2.61,0.29,4.55,0.23,7.16c-0.09,4.05,2.1,8.21,4.08,11.57c3.69,6.29,14.7,15.93,22.17,9.7
		c1.4-1.17,1.49-1.71,3.22-2.39c1.21-0.48,2.4-0.48,3.55-1.14c2.23-1.3,4.09-3.61,6.24-5.02
		C105.69,140.88,109.85,135.89,108.85,129.25"/>
	<g>
		<g>
			<path fill="#D28B70" d="M70.2,740.21c0.04,1.43,0.68,2.73,1.94,3.47c0.61,0.36,1.39,0.56,2.1,0.57c1.31,0.01,2.56-1.16,2.5-2.5
				c-0.06-1.37-1.1-2.49-2.5-2.5c-0.27,0-0.35-0.19,0.44,0.07c-0.14-0.05-0.63-0.21-0.14,0c0.25,0.11,0.3,0.13,0.16,0.06
				c-0.05-0.03-0.09-0.05-0.14-0.08c0.01-0.03,0.58,0.52,0.25,0.16c0.28,0.39,0.36,0.49,0.23,0.27c0.06,0.14,0.11,0.27,0.17,0.41
				c-0.03-0.07-0.04-0.14-0.06-0.22c0.05,0.46,0.07,0.56,0.05,0.28c-0.04-1.31-1.12-2.56-2.5-2.5
				C71.38,737.77,70.16,738.81,70.2,740.21L70.2,740.21z"/>
		</g>
	</g>
	<g>
		<g>
			<path fill="#D28B70" d="M32,460.76c1.57-1.73,1.67-4.11,1.68-6.33c0-1.4-4.84-2.11-4.84-1.26c0,1.96,0.01,4.42-1.4,5.96
				C26.68,459.97,31.15,461.7,32,460.76L32,460.76z"/>
		</g>
	</g>
	<g>
		<g>
			<path fill="#CEB5B4" d="M4.24,810.76c2.12-2.23,2.26-4.95,2.26-7.88c0-3.22-5-3.22-5,0c0,0.59,0,1.18-0.02,1.77
				c-0.01,0.29-0.06,1.06-0.06,1.06c-0.12,0.75-0.27,1.05-0.72,1.52C-1.51,809.55,2.02,813.1,4.24,810.76L4.24,810.76z"/>
		</g>
	</g>
</g>
<path fill="#CEB5B4" d="M129.18,486.97"/>
<path fill="#CEB5B4" d="M129.18,519.22"/>
</svg>
