<!-- Generator: Adobe Illustrator 22.0.1, SVG Export Plug-In  -->
<svg version="1.1"
	 xmlns="http://www.w3.org/2000/svg" xmlns:xlink="http://www.w3.org/1999/xlink" xmlns:a="http://ns.adobe.com/AdobeSVGViewerExtensions/3.0/"
	 x="0px" y="0px" width="802.5px" height="143.33px" viewBox="0 0 802.5 143.33" enable-background="new 0 0 802.5 143.33"
	 xml:space="preserve">
<defs>
</defs>
<g>
	<g>
		<path fill="#D28B70" d="M4.65,143.06c1.57-1.73,1.67-4.11,1.68-6.33c0-1.4-4.84-2.11-4.84-1.26c0,1.96,0.01,4.42-1.4,5.96
			C-0.68,142.27,3.79,143.99,4.65,143.06L4.65,143.06z"/>
	</g>
</g>
<g>
	<g>
		<path fill="#D28B70" d="M800.83,39.75c1.57-1.73,1.67-4.11,1.68-6.33c0-1.4-4.84-2.11-4.84-1.26c0,1.96,0.01,4.42-1.4,5.96
			C795.51,38.96,799.97,40.69,800.83,39.75L800.83,39.75z"/>
	</g>
</g>
<g>
	<g>
		<path fill="#CEB5B4" d="M500.41,10.3c2.12-2.23,2.26-4.95,2.26-7.88c0-3.22-5-3.22-5,0c0,0.59,0,1.18-0.02,1.77
			c-0.01,0.29-0.06,1.06-0.06,1.06c-0.12,0.75-0.27,1.05-0.72,1.52C494.66,9.09,498.19,12.63,500.41,10.3L500.41,10.3z"/>
	</g>
</g>
</svg>
