<!-- Generator: Adobe Illustrator 22.0.1, SVG Export Plug-In  -->
<svg version="1.1"
	 xmlns="http://www.w3.org/2000/svg" xmlns:xlink="http://www.w3.org/1999/xlink" xmlns:a="http://ns.adobe.com/AdobeSVGViewerExtensions/3.0/"
	 x="0px" y="0px" width="1002.8px" height="65.23px" viewBox="0 0 1002.8 65.23" enable-background="new 0 0 1002.8 65.23"
	 xml:space="preserve">
<defs>
</defs>
<g>
	<g>
		<path fill="#EFE5A1" d="M21,10.52c2.27-0.59,4.76-0.97,6.86-2.06c4.55-2.37,7.58-4.16,12.96-3.02c8.65,1.84,16.18,7.84,23.9,11.86
			c3.33,1.74,7.32,3.18,7.86,7.38c0.42,3.3-1.09,6.9-1.99,10.02c-1.84,6.37-3.31,13.67-8.37,18.39c-9.7,9.04-26.88,8.28-38.48,4.33
			C14.59,54.3,7.7,48.86,5.74,39.32C3.08,26.34,7.67,14.67,21,10.52c3.06-0.95,1.76-5.78-1.33-4.82
			C5.69,10.05-1.32,21.65,0.21,36.03c1.16,10.93,6.13,18.92,16.41,23.85c13.89,6.66,33.22,7.99,46.47-1.12
			c6.15-4.23,9.05-11.24,11.05-18.17c1.91-6.65,6.01-15.59,1.29-21.94c-3.05-4.1-8.84-5.95-13.13-8.4
			c-5.23-2.99-10.38-6.22-16.03-8.35c-4.47-1.69-9.38-2.57-14.07-1.27c-2.56,0.71-4.35,2.31-6.68,3.39
			c-1.83,0.85-3.89,1.18-5.83,1.68C16.56,6.52,17.88,11.34,21,10.52z"/>
	</g>
</g>
<g>
	<g>
		<path fill="#D28B70" d="M996.26,36.38c0.04,1.43,0.68,2.73,1.94,3.47c0.61,0.36,1.39,0.56,2.1,0.57c1.31,0.01,2.56-1.16,2.5-2.5
			c-0.06-1.37-1.1-2.49-2.5-2.5c-0.27,0-0.35-0.19,0.44,0.07c-0.14-0.05-0.63-0.21-0.14,0c0.25,0.11,0.3,0.13,0.16,0.06
			c-0.05-0.03-0.09-0.05-0.14-0.08c0.01-0.03,0.58,0.52,0.25,0.16c0.28,0.39,0.36,0.49,0.23,0.27c0.06,0.14,0.11,0.27,0.17,0.41
			c-0.03-0.07-0.04-0.14-0.06-0.22c0.05,0.46,0.07,0.56,0.05,0.28c-0.04-1.31-1.12-2.56-2.5-2.5
			C997.44,33.94,996.22,34.98,996.26,36.38L996.26,36.38z"/>
	</g>
</g>
<g>
	<g>
		<path fill="#CEB5B4" d="M717.62,38.84c2.69-2.77,4.57-5.96,6.28-9.38c0.37-0.73-4.24-2.49-4.82-1.33
			c-1.65,3.29-3.42,6.39-6.01,9.05C712.38,37.89,716.76,39.72,717.62,38.84L717.62,38.84z"/>
	</g>
</g>
<g>
	<g>
		<path fill="#CEB5B4" d="M290.51,11.92c2.12-2.23,2.26-4.95,2.26-7.88c0-3.22-5-3.22-5,0c0,0.59,0,1.18-0.02,1.77
			c-0.01,0.29-0.06,1.06-0.06,1.06c-0.12,0.75-0.27,1.05-0.72,1.52C284.75,10.72,288.28,14.26,290.51,11.92L290.51,11.92z"/>
	</g>
</g>
</svg>
