<svg version="1.0"
	 xmlns="http://www.w3.org/2000/svg" xmlns:xlink="http://www.w3.org/1999/xlink" xmlns:a="http://ns.adobe.com/AdobeSVGViewerExtensions/3.0/"
	 x="0px" y="0px" width="145.88px" height="42.42px" viewBox="0 0 145.88 42.42" enable-background="new 0 0 145.88 42.42"
	 xml:space="preserve">
<defs>
</defs>
<g>
	<g>
		<path fill="#6D6E70" d="M143.03,33.54c-3.25-0.09-8.18-3.22-7.88-6.88c0.02-0.24,0.01-0.46-0.01-0.67
			c0.21-4.67-1.68-9.4-6.15-11.29c-6.56-2.77-13.96,1.46-16.7,7.58c-4.13,5.76-16.15,15.9-23.75,11.6
			c3.96-3.65,7.14-8.32,8.82-12.88c2.12-5.76,3.51-17.02-4.06-19.8c-6.59-2.42-13,3.05-15.14,8.98c-2.43,6.72-2.12,14.88,1,21.36
			c0.23,0.47,0.47,0.91,0.71,1.34c-1.12,0.62-2.29,1.14-3.48,1.53c-6.47,2.1-21.05,2.24-19.72-7.89c0.42-3.23-3.41-5.18-5.38-2.25
			c-5.76,8.58-15.97,10.4-23.63,7.08c3.9-3.77,6.77-8.45,7.88-14.05c1.15-5.83,0.22-13.72-5.81-16.46
			c-5.38-2.45-11.7,0.9-15.01,5.19c-6.01,7.8-3.39,18.74,2.89,25.67c-4.85,2.71-10.45,4.33-15.5,5.03C-1.61,37.24,0,42.9,3.7,42.38
			c6.36-0.89,12.99-3.16,18.57-6.77c0.73,0.46,1.48,0.87,2.26,1.22c9.28,4.19,19.87,2,27.22-4.38c3.65,9.21,17.56,10.43,27.18,7.31
			c1.64-0.53,3.24-1.29,4.78-2.23c7.83,6.36,19.59,1.34,27.75-5.85c2.86,7.61,14.58,10.48,20.74,2.53c2.81,3.07,7.15,5.1,10.85,5.2
			C146.84,39.52,146.81,33.64,143.03,33.54z M17.99,12.73c0.59-3.7,4.77-7.31,8.62-6.78c6.07,0.84,2.95,12.36,1.36,15.56
			c-1.27,2.55-3.08,4.74-5.23,6.61C19.04,24.66,16.92,19.41,17.99,12.73z M88.02,7.03c4.04-2.3,5.08,2.5,5.21,5.31
			c0.16,3.4-1.25,6.68-2.8,9.62c-1.42,2.69-3.43,5.3-5.81,7.49C81.07,22.59,81.08,10.98,88.02,7.03z M128.69,28.34
			c-2.01,8.2-15.43,5.17-11.31-3.11c1.44-3.22,3.92-5.37,7.54-5.5C129.69,19.57,129.48,25.14,128.69,28.34z"/>
		<path fill="#6D6E70" d="M57.16,17.12c0.13-0.12,0.26-0.24,0.4-0.37c2.79-2.58-1.39-6.71-4.17-4.14c-0.13,0.12-0.26,0.25-0.4,0.37
			C50.21,15.55,54.38,19.68,57.16,17.12z"/>
	</g>
</g>
</svg>
